<?xml version="1.0" standalone="no"?>
<!DOCTYPE svg PUBLIC "-//W3C//DTD SVG 20010904//EN"
 "http://www.w3.org/TR/2001/REC-SVG-20010904/DTD/svg10.dtd">
<svg version="1.0" xmlns="http://www.w3.org/2000/svg"
 width="133.000000pt" height="118.000000pt" viewBox="0 0 133.000000 118.000000"
 preserveAspectRatio="xMidYMid meet">
<metadata>
Created by potrace 1.12, written by Peter Selinger 2001-2015
</metadata>
<g transform="translate(0.000000,118.000000) scale(0.100000,-0.100000)"
fill="#000000" stroke="none">
<path d="M459 1143 c-6 -21 -22 -60 -34 -88 -25 -56 -37 -85 -41 -100 -3 -13
-111 -273 -124 -300 -5 -11 -30 -72 -55 -135 -25 -63 -50 -124 -55 -135 -57
-126 -150 -362 -146 -372 4 -11 42 -13 183 -11 l178 3 41 120 c22 66 49 143
58 170 35 100 37 95 -89 192 l-113 88 148 3 148 3 15 47 c9 27 19 57 23 68 4
11 3 16 -2 11 -5 -5 -16 -29 -25 -55 l-16 -47 -151 -2 c-93 -1 -152 2 -152 8
0 5 7 12 15 15 8 4 13 10 10 14 -6 10 15 62 28 71 5 3 8 8 6 10 -3 6 22 80 37
109 7 14 27 61 44 105 18 44 47 115 66 157 37 85 38 88 25 88 -5 0 -15 -17
-22 -37z m-97 -671 c53 -40 101 -79 106 -85 6 -8 -12 -76 -51 -194 l-61 -183
-172 0 -172 0 14 41 c8 22 23 57 33 77 10 21 26 61 35 90 10 28 22 52 28 52 6
0 9 3 5 6 -4 5 43 130 83 219 5 11 12 30 15 42 8 30 21 24 137 -65z"/>
<path d="M848 1174 c-3 -5 5 -32 17 -59 38 -83 65 -155 58 -155 -4 0 0 -6 8
-12 9 -7 21 -33 28 -58 7 -25 17 -49 21 -55 19 -25 81 -196 74 -206 -4 -7 -3
-9 3 -6 6 4 13 1 16 -6 4 -11 -25 -14 -142 -16 -162 -2 -160 -3 -175 67 -4 17
-11 34 -16 37 -5 3 -1 -23 9 -57 l18 -63 146 -3 c81 -1 147 -6 146 -10 0 -4
-49 -45 -110 -91 -60 -46 -109 -88 -109 -94 0 -23 43 -151 47 -140 4 11 -12
69 -35 132 -4 10 -1 13 11 8 11 -4 17 -1 17 6 0 13 79 78 97 81 4 0 20 15 36
33 15 17 40 36 56 41 l28 10 41 -102 c22 -55 64 -157 92 -226 61 -146 68 -163
67 -170 0 -3 5 -15 12 -28 l12 -22 -174 0 -173 0 -34 103 c-18 56 -37 106 -42
112 -9 11 13 -69 45 -159 l22 -61 174 -3 c96 -1 178 1 183 6 5 5 1 30 -10 58
-37 91 -114 279 -132 319 -9 22 -32 77 -50 122 -19 45 -37 80 -42 77 -4 -3 -5
1 -2 9 3 8 -13 57 -34 108 -32 74 -147 356 -191 463 -4 11 -10 16 -13 10z"/>
<path d="M631 842 c-12 -42 -23 -79 -23 -82 0 -3 -4 -13 -9 -22 -5 -10 -6 -18
-1 -18 4 0 16 26 26 58 9 31 23 71 30 87 13 30 13 30 43 -60 18 -49 32 -83 32
-75 1 22 -55 184 -65 187 -5 2 -20 -32 -33 -75z"/>
<path d="M663 754 c2 -34 27 -69 27 -37 -1 10 -7 29 -15 43 l-14 25 2 -31z"/>
<path d="M629 683 c-7 -19 -6 -29 2 -37 9 -8 10 -7 6 7 -4 9 -2 17 4 17 6 0 9
6 6 14 -3 8 -1 17 6 20 9 3 9 5 -1 5 -7 1 -17 -11 -23 -26z"/>
<path d="M691 680 c0 -8 4 -22 9 -30 12 -18 12 -2 0 25 -6 13 -9 15 -9 5z"/>
<path d="M610 626 c0 -2 7 -7 16 -10 8 -3 12 -2 9 4 -6 10 -25 14 -25 6z"/>
<path d="M711 625 c-1 -6 3 -25 9 -44 8 -29 6 -38 -17 -67 -14 -19 -23 -37
-21 -40 3 -3 15 7 27 23 20 24 30 27 89 30 l67 3 -80 -30 c-44 -16 -88 -31
-97 -33 -9 -2 -25 -12 -35 -23 -10 -11 -14 -14 -9 -7 10 15 -6 37 -27 39 -25
2 -57 17 -57 26 0 5 -4 7 -8 4 -9 -5 -110 19 -120 28 -3 3 33 6 79 6 l84 0 23
-36 c13 -20 26 -33 29 -30 5 5 -3 18 -42 73 -7 9 -6 16 4 22 8 5 10 14 6 22
-6 9 -10 7 -16 -9 -8 -21 -14 -22 -124 -22 -137 0 -144 -9 -57 -66 31 -21 68
-48 82 -61 14 -13 30 -23 37 -23 7 0 13 -4 13 -10 0 -5 -5 -10 -12 -10 -6 0
-9 -2 -7 -5 3 -2 15 -2 28 2 15 4 19 8 11 13 -8 5 -2 10 15 14 32 8 43 1 30
-19 -57 -80 -86 -127 -82 -132 3 -3 27 25 54 62 46 65 102 133 89 108 -3 -6 1
-18 9 -26 8 -9 15 -20 15 -26 0 -6 3 -11 8 -11 4 0 23 -25 42 -55 19 -30 38
-54 42 -55 4 0 13 -10 19 -22 11 -23 11 -23 -8 -3 -11 11 -49 40 -86 64 l-67
43 -50 -37 c-27 -20 -47 -41 -44 -46 3 -5 0 -8 -8 -7 -7 2 -12 -3 -10 -10 1
-8 -2 -11 -8 -7 -6 3 -8 10 -5 15 3 4 0 10 -6 12 -9 3 -9 9 0 26 6 12 8 22 3
22 -5 0 -17 -19 -26 -43 -19 -51 -20 -65 -4 -49 7 7 16 12 21 12 5 0 -1 -9
-14 -19 -13 -11 -21 -22 -18 -25 8 -9 149 97 145 109 -2 6 9 10 23 10 18 0 56
-21 106 -59 44 -32 85 -60 91 -63 14 -5 13 22 -1 34 -4 4 -5 2 -1 -4 4 -7 5
-13 2 -13 -10 0 -37 61 -31 71 4 5 2 8 -3 7 -5 -2 -31 26 -57 62 -26 36 -53
71 -58 78 -8 11 -2 10 27 -2 21 -9 42 -16 46 -16 9 0 129 79 148 97 8 7 22 18
32 23 11 6 17 17 14 25 -5 11 -31 15 -117 17 l-110 3 -13 35 c-7 19 -13 30
-13 25z m200 -84 c-12 -8 -51 -4 -51 5 0 2 15 4 33 4 22 0 28 -3 18 -9z m-36
-51 c-10 -11 -20 -18 -22 -16 -3 2 -13 -3 -22 -12 -39 -37 -61 -51 -66 -42 -3
4 -19 11 -35 15 -17 4 -30 11 -30 17 0 6 7 8 15 5 8 -4 17 -2 20 3 4 6 16 10
29 10 12 0 26 3 30 8 7 7 70 29 90 31 5 1 1 -8 -9 -19z m-333 -13 c98 -34 99
-37 6 -41 -14 -1 -25 1 -22 5 2 4 -9 17 -25 28 -32 23 -46 27 -35 9 4 -7 3 -8
-5 -4 -11 7 -6 26 7 26 4 0 37 -11 74 -23z"/>
<path d="M782 357 c6 -18 16 -34 24 -34 10 0 10 6 0 30 -18 45 -37 48 -24 4z"/>
<path d="M525 359 c-4 -6 -5 -12 -2 -15 2 -3 7 2 10 11 7 17 1 20 -8 4z"/>
</g>
</svg>
